<svg xmlns="http://www.w3.org/2000/svg" viewBox="0 0 512 512" fill="none">
  <rect width="512" height="512" rx="108" fill="#2563EB"/>
  <path
    d="M118 148c0-18 14-32 32-32h52v280c-16-10-34-16-52-16-18 0-32-14-32-32V148Z"
    fill="#E2E8F0"
  />
  <path
    d="M394 148c0-18-14-32-32-32h-52v280c16-10 34-16 52-16 18 0 32-14 32-32V148Z"
    fill="#F8FAFC"
  />
  <path d="M256 116c-28 0-52 8-72 22v254c20-14 44-22 72-22s52 8 72 22V138c-20-14-44-22-72-22Z" fill="#FFFFFF"/>
  <path d="M256 116v254" stroke="#CBD5E1" stroke-width="4" stroke-linecap="round"/>
  <path
    d="M236 180h40M236 220h40M236 260h28"
    stroke="#94A3B8"
    stroke-width="8"
    stroke-linecap="round"
  />
  <g transform="translate(256 330)">
    <circle r="88" fill="#F59E0B"/>
    <circle r="34" fill="#2563EB"/>
    <g fill="#F59E0B">
      <rect x="-16" y="-118" width="32" height="44" rx="8"/>
      <rect x="-16" y="74" width="32" height="44" rx="8"/>
      <rect x="-118" y="-16" width="44" height="32" rx="8"/>
      <rect x="74" y="-16" width="44" height="32" rx="8"/>
      <rect x="-16" y="-118" width="32" height="44" rx="8" transform="rotate(45)"/>
      <rect x="-16" y="-118" width="32" height="44" rx="8" transform="rotate(-45)"/>
      <rect x="-16" y="-118" width="32" height="44" rx="8" transform="rotate(135)"/>
      <rect x="-16" y="-118" width="32" height="44" rx="8" transform="rotate(-135)"/>
    </g>
    <circle r="88" fill="none" stroke="#D97706" stroke-width="6"/>
  </g>
</svg>
